# xmcd CD database file
#
# Track frame offsets:
#	150
#	33826
#	52283
#	92476
#	113851
#	141076
#	161401
#	183826
#	197701
#	241275
#	270075
#
# Disc length: 3698 seconds
#
# Revision: 0
# Processed by: cddbd v1.5.1PL0 Copyright (c) Steve Scherf et al.
# Submitted via: CDex 1.51
#
DISCID=8a0e700b
DTITLE=Shane Howard - Another Country
DYEAR=2004
DGENRE=Blues
TTITLE0=Cooper's Creek
TTITLE1=Don't Cry
TTITLE2=Abraham
TTITLE3=St Kilda Again
TTITLE4=Never Be The Same
TTITLE5=Only You
TTITLE6=Talk Of The Town
TTITLE7=My Universe
TTITLE8=Near Utopia
TTITLE9=Till The Rivers Run Dry
TTITLE10=I Go Out Walking
EXTD=YEAR: 2004
EXTT0=
EXTT1=
EXTT2=
EXTT3=
EXTT4=
EXTT5=
EXTT6=
EXTT7=
EXTT8=
EXTT9=
EXTT10=
PLAYORDER=
